<?xml version="1.0" encoding="UTF-8"?>
<svg xmlns="http://www.w3.org/2000/svg" id="Layer_1" data-name="Layer 1" viewBox="0 0 512 512" width="512" height="512"><path d="M339.562,226.623a8,8,0,0,1-11.315,11.315,102.17,102.17,0,0,0-144.494,0,8,8,0,0,1-11.315-11.315,118.176,118.176,0,0,1,167.124,0ZM256,224.011a85.608,85.608,0,0,0-60.934,25.24,8,8,0,0,0,11.315,11.312,70.175,70.175,0,0,1,99.239,0,8,8,0,0,0,11.315-11.312A85.609,85.609,0,0,0,256,224.011Zm0,32a53.822,53.822,0,0,0-38.307,15.867,8,8,0,0,0,11.315,11.314,38.171,38.171,0,0,1,53.984,0,8,8,0,0,0,11.315-11.314A53.822,53.822,0,0,0,256,256.01Zm22.174,54.174A22.174,22.174,0,1,1,256,288.01,22.2,22.2,0,0,1,278.174,310.184Zm-16,0A6.174,6.174,0,1,0,256,316.357,6.181,6.181,0,0,0,262.174,310.184ZM512,256a42.777,42.777,0,0,1-84.8,8H395.766a139.435,139.435,0,0,1-35.327,85.125L382.713,371.4a42.715,42.715,0,1,1-11.322,11.307l-22.266-22.267A139.435,139.435,0,0,1,264,395.766V427.2a42.781,42.781,0,1,1-16,0V395.766a139.435,139.435,0,0,1-85.125-35.327l-22.266,22.267A42.787,42.787,0,0,1,74.98,437.02h0A42.778,42.778,0,0,1,129.287,371.4l22.274-22.274A139.435,139.435,0,0,1,116.234,264H84.8a42.78,42.78,0,1,1,0-16h31.434a139.435,139.435,0,0,1,35.327-85.125L129.287,140.6A42.781,42.781,0,1,1,140.6,129.287l22.274,22.275A139.431,139.431,0,0,1,248,116.234V84.8a42.781,42.781,0,1,1,16,0v31.434a139.431,139.431,0,0,1,85.125,35.328L371.4,129.287A42.724,42.724,0,1,1,382.713,140.6l-22.274,22.274A139.435,139.435,0,0,1,395.766,248H427.2a42.777,42.777,0,0,1,84.8,8ZM387.832,124.168a26.769,26.769,0,1,0,0-37.873A26.808,26.808,0,0,0,387.832,124.168ZM256,69.562A26.781,26.781,0,1,0,229.219,42.78,26.811,26.811,0,0,0,256,69.562ZM124.168,124.168a26.78,26.78,0,1,0-37.873,0A26.81,26.81,0,0,0,124.168,124.168ZM69.562,256A26.781,26.781,0,1,0,42.78,282.781,26.811,26.811,0,0,0,69.562,256Zm62.451,150.769a26.782,26.782,0,1,0-45.719,18.936h0a26.782,26.782,0,0,0,45.718-18.936ZM256,442.438a26.781,26.781,0,1,0,26.781,26.782A26.811,26.811,0,0,0,256,442.438ZM406.769,380a26.776,26.776,0,1,0,18.936,45.7h0A26.769,26.769,0,0,0,406.769,380ZM380,256A124,124,0,1,0,256,380,124.14,124.14,0,0,0,380,256Zm116,0a26.781,26.781,0,1,0-26.78,26.781A26.81,26.81,0,0,0,496,256Z"/></svg>
